
######## ######## ######## ##          ######## ########  ######## ######## 
##       ##       ##       ##          ##       ##     ## ##       ##       
##       ##       ##       ##          ##       ##     ## ##       ##       
######   ######   ######   ##          ######   ########  ######   ######   
##       ##       ##       ##          ##       ##   ##   ##       ##       
##       ##       ##       ##          ##       ##    ##  ##       ##       
##       ######## ######## ########    ##       ##     ## ######## ######## 

Genre:Drama | Horror | Thriller 
Language:English
IMDb: 
http://www.imdb.com/title/tt1390399/
Source:BluRay.x264.Japhson

Format : MPEG-4
Format profile : Base Media
Codec ID : isom
File size : 1.91 GiB
Duration : 1h 17mn
Overall bit rate : 3 537 Kbps

Video
Format profile : High@L4.1
Format settings, CABAC : Yes
Format settings, ReFrames : 3 frames
Codec ID : avc1
Codec ID/Info : Advanced Video Coding
Duration : 1h 17mn
Bit rate mode : Variable
Bit rate : 3 319 Kbps
Maximum bit rate : 14.5 Mbps
Width : 1 280 pixels
Height : 544 pixels
Display aspect ratio : 2.35:1
Frame rate mode : Constant
Frame rate : 23.976 fps
Color space : YUV
Chroma subsampling : 4:2:0
Bit depth : 8 bits
Scan type : Progressive
Bits/(Pixel*Frame) : 0.199
Stream size : 1.77 GiB (93%)
Writing library : x264

Audio
ID : 2
Format : AAC
Format/Info : Advanced Audio Codec
Format version : Version 4
Format profile : LC
Format settings, SBR : No
Codec ID : 40
Duration : 1h 17mn
Bit rate mode : Variable
Bit rate : 255 Kbps
Maximum bit rate : 300 Kbps
Channel(s) : 2 channels
Channel positions : Front: L R
Sampling rate : 48.0 KHz
Stream size : 141 MiB (7%)


Plot:
The Burnt House is the story of Megan and Joe, a couple who have recently experienced the death their infant son to SIDS


Greets:

INK,CRYS,IMAGINE,LKRG,FXG,3Li,FLAWL3SS,TA,iLLUSiON,ViSiON,DTRG SAFCuk009,LU,TheFalcon007,MYSTiC,PrisM,Noir,WBZ,LAP,Rx,Kingdom,SAFCuk009+Fabreezy,HDLiTE,TWiZTED,ExtraTorrentRG.ELEKTRI4KA,MAGNAT,CM8
And to all the other p2p grps past and present





================================== 
http://thepiratebay.org/user/hiest
==================================





Screen Shots:
 
http://www.postimg.com/30000/photo-29755.jpg
 
http://www.postimg.com/30000/photo-29756.jpg
 
http://www.postimg.com/30000/photo-29757.jpg
 
http://www.postimg.com/30000/photo-29758.jpg
 
http://www.postimg.com/30000/photo-29759.jpg


######## ######## ######## ##          ######## ########  ######## ######## 
##       ##       ##       ##          ##       ##     ## ##       ##       
##       ##       ##       ##          ##       ##     ## ##       ##       
######   ######   ######   ##          ######   ########  ######   ######   
##       ##       ##       ##          ##       ##   ##   ##       ##       
##       ##       ##       ##          ##       ##    ##  ##       ##       
##       ######## ######## ########    ##       ##     ## ######## ######## 
